<svg width="25" height="25" viewBox="0 0 25 25" fill="none" xmlns="http://www.w3.org/2000/svg">
<g clip-path="url(#clip0)">
<path d="M24.4158 12.7339C24.4158 11.7097 24.3327 10.9622 24.1528 10.1871H12.457V14.81H19.3222C19.1838 15.9589 18.4364 17.689 16.7754 18.8516L16.7522 19.0064L20.4502 21.8712L20.7064 21.8968C23.0593 19.7237 24.4158 16.5264 24.4158 12.7339Z" fill="#4285F4"/>
<path d="M12.457 24.9141C15.8203 24.9141 18.6439 23.8067 20.7063 21.8967L16.7754 18.8516C15.7235 19.5852 14.3116 20.0973 12.457 20.0973C9.16277 20.0973 6.36688 17.9243 5.37022 14.9208L5.22413 14.9332L1.3789 17.909L1.32861 18.0488C3.37709 22.1181 7.58482 24.9141 12.457 24.9141Z" fill="#34A853"/>
<path d="M5.37032 14.9208C5.10735 14.1457 4.95515 13.3152 4.95515 12.457C4.95515 11.5988 5.10735 10.7684 5.35649 9.99331L5.34952 9.82823L1.45611 6.80457L1.32872 6.86516C0.484447 8.5538 0 10.4501 0 12.457C0 14.464 0.484447 16.3602 1.32872 18.0488L5.37032 14.9208Z" fill="#FBBC05"/>
<path d="M12.457 4.8167C14.7961 4.8167 16.3739 5.8271 17.2737 6.67147L20.7893 3.23884C18.6301 1.23187 15.8203 0 12.457 0C7.58482 0 3.37709 2.7959 1.32861 6.86517L5.35638 9.99332C6.36688 6.98979 9.16277 4.8167 12.457 4.8167Z" fill="#EB4335"/>
</g>
<defs>
<clipPath id="clip0">
<rect width="24.4275" height="25" fill="white"/>
</clipPath>
</defs>
</svg>
