<?xml version="1.0" encoding="UTF-8"?>
<svg width="187.75mm" height="100.2mm" version="1.1" viewBox="0 0 187.75 100.2" xmlns="http://www.w3.org/2000/svg" xmlns:cc="http://creativecommons.org/ns#" xmlns:dc="http://purl.org/dc/elements/1.1/" xmlns:rdf="http://www.w3.org/1999/02/22-rdf-syntax-ns#">
 <metadata>
  <rdf:RDF>
   <cc:Work rdf:about="">
    <dc:format>image/svg+xml</dc:format>
    <dc:type rdf:resource="http://purl.org/dc/dcmitype/StillImage"/>
    <dc:title/>
   </cc:Work>
  </rdf:RDF>
 </metadata>
 <g transform="translate(-9.6925 -11.132)">
  <g>
   <path d="m9.6925 93.754h3.2181v14.36h14.336v3.218h-17.554v-17.578"/>
   <path d="m45.339 96.997h-12.897v3.9497h10.386v3.2184h-10.386v3.9497h12.897v3.218h-16.14v-17.554h16.14v3.218"/>
   <path d="m65.259 93.779v0.85337l-6.6315 7.9234 6.6315 7.9241v0.85302h-3.5352l-5.9976-7.1677h-4.1444v7.1677h-3.2427v-17.554h3.2427v7.1677h4.1444c1.9505-2.3403 4.0718-4.8271 5.9976-7.1677h3.5352"/>
   <path d="m85.643 93.779v17.554h-3.218v-7.1677h-11.508v7.1677h-3.2184v-17.554h3.2184v7.1677h11.508v-7.1677h3.218"/>
   <path d="m111.29 104.16c0-0.0977-0.073-0.1464-0.17075-0.1464h-10.752c-0.0977 0-0.17074 0.0487-0.17074 0.1464v3.779c0 0.0977 0.073 0.17075 0.17074 0.17075h10.752c0.0977 0 0.17075-0.073 0.17075-0.17075zm-10.922-7.1681c-0.0977 0-0.17074 0.07338-0.17074 0.17075v3.4378c0 0.0974 0.073 0.17074 0.17074 0.17074h10.069c0.073 0 0.14605-0.0734 0.14605-0.17074v-3.4378c0-0.09737-0.073-0.17075-0.14605-0.17075zm13.458 3.6086c0 0.4632-0.0727 0.87771-0.24342 1.2435 0.56057 0.58491 0.95074 1.4383 0.95074 2.316v3.779c0 1.8771-1.536 3.3888-3.4135 3.3888h-14.141v-17.554h13.458c1.8528 0 3.3884 1.5117 3.3884 3.3888v3.4378"/>
   <path d="m131.8 108.11c0.073 0 0.1464-0.073 0.1464-0.17075v-10.776c0-0.09737-0.0734-0.17075-0.1464-0.17075h-10.776c-0.0977 0-0.17074 0.07338-0.17074 0.17075v10.776c0 0.0977 0.073 0.17075 0.17074 0.17075zm0-14.336c1.8531 0 3.3888 1.5117 3.3888 3.3888v10.776c0 1.8771-1.5356 3.3888-3.3888 3.3888h-10.776c-1.8775 0-3.3891-1.5117-3.3891-3.3888v-10.776c0-1.8771 1.5116-3.3888 3.3891-3.3888h10.776"/>
   <path d="m152.72 102.21v-5.0468c0-0.09737-0.0734-0.17075-0.17075-0.17075h-10.752c-0.0977 0-0.17075 0.07338-0.17075 0.17075v5.0468zm-0.17075-8.4356c1.8775 0 3.4131 1.5117 3.4131 3.3888v14.165h-3.2424v-5.8999h-11.093v5.8999h-3.2184v-14.165c0-1.8771 1.5116-3.3888 3.3891-3.3888h10.752"/>
   <path d="m173.35 102.09c0.0974 0 0.17075-0.073 0.17075-0.17039v-4.7297c0-0.09772-0.0734-0.1711-0.17075-0.1711h-10.752c-0.0974 0-0.17074 0.07338-0.17074 0.1711v4.7297c0 0.0974 0.0734 0.17039 0.17074 0.17039zm3.4135-0.17039c0 1.8528-1.5364 3.3888-3.4135 3.3888h-0.95073l4.3642 5.1932v0.82868h-3.5112l-5.0708-6.0219h-5.7542v6.0219h-3.218v-17.53h14.141c1.8771 0 3.4135 1.536 3.4135 3.3891v4.7297"/>
   <path d="m194.2 97.167c0-0.09737-0.073-0.17075-0.17075-0.17075h-10.752c-0.0977 0-0.17074 0.07338-0.17074 0.17075v10.776c0 0.0977 0.073 0.17075 0.17074 0.17075h10.752c0.0977 0 0.17075-0.073 0.17075-0.17075zm-0.17075-3.3888c1.8775 0 3.4131 1.5117 3.4131 3.3888v10.776c0 1.8771-1.5356 3.3888-3.4131 3.3888h-14.141v-17.554h14.141"/>
  </g>
  <path d="m123.01 82.241h-43.73v-71.109l14.533 14.527v42.051h14.664l14.533 14.531" fill="#ff3d3d"/>
  <path d="m127.85 33.674v43.727l-14.533-14.531v-14.661h-12.172v-14.534h26.705"/>
 </g>
</svg>
